<svg width="12" height="13" viewBox="0 0 12 13" fill="none" xmlns="http://www.w3.org/2000/svg">
<g clip-path="url(#clip0_1_203)">
<path d="M8.39608 2.37388C9.0533 2.41021 9.66952 2.70483 10.1105 3.19353C10.5514 3.68223 10.7813 4.3254 10.7501 4.98288C10.7501 6.51888 9.42408 7.46238 8.15158 8.59388C6.89558 9.71538 6.21908 10.3284 6.00008 10.4699C5.76158 10.3154 4.92858 9.55838 3.84858 8.59388C2.57058 7.45788 1.25008 6.50538 1.25008 4.98288C1.21887 4.3254 1.44878 3.68223 1.88971 3.19353C2.33065 2.70483 2.94687 2.41021 3.60408 2.37388C3.96816 2.36284 4.32886 2.44647 4.65094 2.61658C4.97302 2.78669 5.24544 3.03746 5.44158 3.34438C5.86158 3.93188 5.93158 4.22588 6.00158 4.22588C6.07158 4.22588 6.14058 3.93188 6.55658 3.34288C6.75161 3.03454 7.02414 2.78277 7.34693 2.61273C7.66973 2.44269 8.03149 2.36033 8.39608 2.37388ZM8.39608 1.37388C7.94205 1.35934 7.49058 1.44742 7.07531 1.63155C6.66003 1.81569 6.29165 2.09113 5.99758 2.43738C5.70377 2.09214 5.33614 1.81733 4.92186 1.63325C4.50757 1.44917 4.05722 1.36053 3.60408 1.37388C2.68152 1.40995 1.81077 1.80987 1.18225 2.48617C0.553733 3.16248 0.21858 4.06014 0.250083 4.98288C0.250083 6.78788 1.52508 7.89638 2.75758 8.96788C2.89908 9.09088 3.04208 9.21488 3.18408 9.34138L3.69758 9.80038C4.2576 10.3333 4.84472 10.8369 5.45658 11.3094C5.61847 11.4142 5.80722 11.47 6.00008 11.47C6.19295 11.47 6.38169 11.4142 6.54358 11.3094C7.17493 10.8225 7.78011 10.3026 8.35658 9.75188L8.81758 9.33988C8.96408 9.20988 9.11258 9.08038 9.26008 8.95288C10.4271 7.94038 11.7501 6.79288 11.7501 4.98288C11.7816 4.06014 11.4464 3.16248 10.8179 2.48617C10.1894 1.80987 9.31865 1.40995 8.39608 1.37388Z" fill="#8E8E8E"/>
</g>
<defs>
<clipPath id="clip0_1_203">
<rect width="12" height="12" fill="white" transform="translate(0 0.421875)"/>
</clipPath>
</defs>
</svg>
